<svg id="Layer_1" data-name="Layer 1" xmlns="http://www.w3.org/2000/svg" viewBox="0 0 709.76 364.7"><defs><style>.cls-1,.cls-4{font-size:187px;font-family:SEGA, SEGA LOGO FONT;}.cls-1,.cls-2,.cls-3,.cls-4{fill:#fff;}.cls-2,.cls-3,.cls-4{stroke:#fff;stroke-miterlimit:10;}.cls-2{stroke-width:22px;}.cls-3{stroke-width:23px;}</style></defs><title>logo</title><text class="cls-1" transform="translate(1.92 187.99)"><tspan xml:space="preserve">R    TRO</tspan></text><line class="cls-2" x1="137.33" y1="176.6" x2="180.08" y2="248.24"/><line class="cls-3" x1="102.83" y1="178.1" x2="142.33" y2="244.24"/><line class="cls-2" x1="155.08" y1="205.96" x2="190.08" y2="265.24"/><line class="cls-3" x1="129.33" y1="221.96" x2="164.33" y2="281.24"/><line class="cls-2" x1="181.16" y1="259.6" x2="249.99" y2="259.6"/><line class="cls-2" x1="161.16" y1="288.6" x2="229.99" y2="288.6"/><line class="cls-3" x1="136.33" y1="233.96" x2="171.33" y2="293.24"/><line class="cls-2" x1="181.16" y1="288.6" x2="249.99" y2="288.6"/><line class="cls-2" x1="247.33" y1="248.6" x2="247.33" y2="299.6"/><line class="cls-2" x1="303.33" y1="272.6" x2="252.33" y2="272.6"/><line class="cls-2" x1="354.33" y1="272.6" x2="303.33" y2="272.6"/><line class="cls-2" x1="365.33" y1="218.6" x2="365.33" y2="283.6"/><line class="cls-2" x1="321.33" y1="218.6" x2="321.33" y2="314.6"/><line class="cls-2" x1="310.33" y1="222.6" x2="376.33" y2="222.6"/><line class="cls-2" x1="383.33" y1="303.6" x2="332.33" y2="303.6"/><line class="cls-2" x1="468.33" y1="303.6" x2="417.33" y2="303.6"/><line class="cls-2" x1="457.33" y1="211.6" x2="457.33" y2="262.6"/><line class="cls-2" x1="413.33" y1="211.6" x2="413.33" y2="262.6"/><line class="cls-2" x1="453.33" y1="222.6" x2="402.33" y2="222.6"/><line class="cls-2" x1="473.33" y1="272.6" x2="402.33" y2="272.6"/><line class="cls-2" x1="457.33" y1="244.6" x2="457.33" y2="295.6"/><line class="cls-2" x1="539.33" y1="272.6" x2="488.33" y2="272.6"/><line class="cls-2" x1="550.33" y1="218.6" x2="550.33" y2="283.6"/><line class="cls-2" x1="506.33" y1="218.6" x2="506.33" y2="314.6"/><line class="cls-2" x1="495.33" y1="222.6" x2="561.33" y2="222.6"/><line class="cls-2" x1="568.33" y1="303.6" x2="517.33" y2="303.6"/><line class="cls-2" x1="432.33" y1="303.6" x2="381.33" y2="303.6"/><line class="cls-2" x1="513.33" y1="272.6" x2="462.33" y2="272.6"/><line class="cls-2" x1="560.24" y1="306.98" x2="634.41" y2="226.21"/><line class="cls-2" x1="602.08" y1="204.7" x2="638.58" y2="238.2"/><line class="cls-2" x1="598.58" y1="196.57" x2="599.33" y2="315.6"/><line class="cls-2" x1="570.24" y1="214.21" x2="638.33" y2="286.6"/><line class="cls-2" x1="601.81" y1="307.06" x2="636.84" y2="272.03"/><text class="cls-4" transform="matrix(-1, 0, 0, 1, 282.59, 184.44)">e</text></svg>